<svg version="1.1" viewBox="0.0 0.0 960.0 960.0" fill="none" stroke="none" stroke-linecap="square" stroke-miterlimit="10" xmlns:xlink="http://www.w3.org/1999/xlink" xmlns="http://www.w3.org/2000/svg"><clipPath id="p.0"><path d="m0 0l960.0 0l0 960.0l-960.0 0l0 -960.0z" clip-rule="nonzero"/></clipPath><g clip-path="url(#p.0)"><path fill="#000000" fill-opacity="0.0" d="m0 0l960.0 0l0 960.0l-960.0 0z" fill-rule="evenodd"/><path fill="#000000" fill-opacity="0.0" d="m0 0l466.04724 0l0 960.0l-466.04724 0z" fill-rule="evenodd"/><path fill="#000000" d="m417.53125 262.9375q0 16.0 -6.671875 24.0q-6.65625 8.0 -21.59375 8.0q-1.0625 11.203125 -4.796875 38.9375q-5.34375 37.328125 -5.875 41.59375q-47.46875 353.59375 -197.85938 353.59375q-44.265625 0 -69.078125 -25.0625q-24.796875 -25.0625 -24.796875 -62.9375q0 -67.734375 57.59375 -119.734375q57.609375 -52.0 151.48438 -86.125q5.859375 -37.859375 9.0625 -67.734375l9.59375 -80.53125q-32.0 -3.203125 -59.734375 -3.203125q-74.125 0 -109.328125 14.40625q-35.203125 14.390625 -35.203125 46.921875q0 16.0 10.671875 34.671875q3.203125 5.328125 3.203125 11.203125q0 11.203125 -11.46875 20.0q-11.46875 8.796875 -24.796875 8.796875q-17.078125 0 -26.140625 -14.390625q-14.9375 -24.546875 -14.9375 -57.078125q0 -128.0 224.0 -128.0q65.078125 0 116.265625 12.8125q30.40625 7.453125 30.40625 29.859375zm-229.85938 409.0625q26.125 0 52.25 -39.46875q26.140625 -39.46875 45.875 -138.125q-130.125 57.0625 -130.125 139.73438q0 18.125 8.53125 28.0q8.53125 9.859375 23.46875 9.859375z" fill-rule="nonzero"/><path fill="#000000" fill-opacity="0.0" d="m443.62466 0l516.3779 0l0 960.0l-516.3779 0z" fill-rule="evenodd"/><path fill="#000000" d="m928.3591 554.1406q6.921875 0 10.921875 6.671875q4.0 6.65625 4.0 16.78125q0 12.28125 -3.734375 19.21875q-3.734375 6.921875 -11.734375 12.25q-31.453125 20.796875 -100.265625 68.265625q-20.796875 110.40625 -53.859375 173.875q-33.0625 63.46875 -83.734375 63.46875q-27.203125 0 -44.265625 -16.8125q-17.0625 -16.796875 -17.0625 -44.0q0 -25.0625 11.1875 -50.671875q11.203125 -25.59375 41.875 -59.1875q30.671875 -33.59375 86.671875 -76.796875l1.59375 -10.140625q-42.125 17.609375 -82.65625 17.609375q-59.734375 0 -105.078125 -23.203125q-45.328125 -23.203125 -70.390656 -65.859375q-25.0625 -42.671875 -25.0625 -99.203125q0 -78.9375 29.859406 -139.46875q29.859375 -60.53125 82.390625 -93.859375q52.546875 -33.34375 117.609375 -33.34375q62.390625 0 93.59375 29.078125q31.203125 29.0625 31.203125 77.0625q0 31.46875 -11.46875 50.40625q-11.46875 18.921875 -32.796875 18.921875q-14.40625 0 -23.203125 -6.921875q-8.796875 -6.9375 -8.796875 -19.21875q0 -5.328125 2.125 -18.125q3.203125 -14.9375 3.203125 -23.46875q0 -22.40625 -13.609375 -34.671875q-13.59375 -12.265625 -45.578125 -12.265625q-38.9375 0 -72.28125 22.40625q-33.328125 22.40625 -53.59375 66.9375q-20.265625 44.53125 -20.265625 106.921875q0 64.0 34.921875 98.9375q34.9375 34.9375 101.078125 34.9375q36.796875 0 76.796875 -16.53125l7.46875 -65.078125l-54.40625 0q-14.921875 0 -22.921875 -7.1875q-8.0 -7.203125 -8.0 -23.734375q0 -14.9375 8.0 -23.46875q8.0 -8.53125 21.328125 -8.53125l99.734375 0q11.734375 0 19.46875 7.734375q7.734375 7.734375 6.125 22.125q-1.59375 17.0625 -10.65625 77.328125l-5.875 40.546875q42.671875 -32.0 77.875 -55.46875q6.921875 -4.265625 12.265625 -4.265625zm-232.53125 308.79688q13.859375 0 30.390625 -31.46875q16.53125 -31.46875 30.9375 -101.34375q-40.53125 34.671875 -58.40625 62.671875q-17.859375 28.0 -17.859375 49.328125q0 20.8125 14.9375 20.8125z" fill-rule="nonzero"/></g></svg>